<svg xmlns="http://www.w3.org/2000/svg" width="1320" height="722" viewBox="0 0 1320 722" role="img" aria-labelledby="title desc">
<title id="title">Phase 9 mechanism evidence matrix</title>
<desc id="desc">Stacked Phase 8b evidence-tier counts with separate context counters for expression, repeats, and locus review.</desc>
<rect width="100%" height="100%" fill="#ffffff"/>
<text x="24" y="34" font-family="Arial, Helvetica, sans-serif" font-size="20" font-weight="700" fill="#222222" text-anchor="start">Phase 9 mechanism evidence matrix</text>
<text x="24" y="58" font-family="Arial, Helvetica, sans-serif" font-size="12" font-weight="400" fill="#555555" text-anchor="start">Stacked counts from Phase 8b mechanism summary; artifact/context counts are not mechanism claims.</text>
<text x="24" y="84" font-family="Arial, Helvetica, sans-serif" font-size="11" font-weight="400" fill="#666666" text-anchor="start">Source values are written to reports/figures/data/phase9_mechanism_evidence_matrix.tsv.</text>
<rect x="380" y="96" width="16" height="12" rx="1" ry="1" fill="#009E73"/>
<text x="402" y="106" font-family="Arial, Helvetica, sans-serif" font-size="12" font-weight="400" fill="#333333" text-anchor="start">Tier 1</text>
<rect x="464" y="96" width="16" height="12" rx="1" ry="1" fill="#0072B2"/>
<text x="486" y="106" font-family="Arial, Helvetica, sans-serif" font-size="12" font-weight="400" fill="#333333" text-anchor="start">Tier 2</text>
<rect x="548" y="96" width="16" height="12" rx="1" ry="1" fill="#E69F00"/>
<text x="570" y="106" font-family="Arial, Helvetica, sans-serif" font-size="12" font-weight="400" fill="#333333" text-anchor="start">Tier 3</text>
<rect x="632" y="96" width="16" height="12" rx="1" ry="1" fill="#D55E00"/>
<text x="654" y="106" font-family="Arial, Helvetica, sans-serif" font-size="12" font-weight="400" fill="#333333" text-anchor="start">Artifact/uncertain</text>
<text x="996" y="106" font-family="Arial, Helvetica, sans-serif" font-size="12" font-weight="700" fill="#333333" text-anchor="start">Context counters</text>
<text x="996" y="128" font-family="Arial, Helvetica, sans-serif" font-size="11" font-weight="400" fill="#333333" text-anchor="start">expr</text>
<text x="1068" y="128" font-family="Arial, Helvetica, sans-serif" font-size="11" font-weight="400" fill="#333333" text-anchor="start">repeat</text>
<text x="1150" y="128" font-family="Arial, Helvetica, sans-serif" font-size="11" font-weight="400" fill="#333333" text-anchor="start">locus</text>
<line x1="380" y1="598" x2="900" y2="598" stroke="#444444" stroke-width="1"/>
<line x1="380" y1="128" x2="380" y2="598" stroke="#e3e3e3" stroke-width="1"/>
<line x1="380" y1="598" x2="380" y2="603" stroke="#444444" stroke-width="1"/>
<text x="380" y="618" font-family="Arial, Helvetica, sans-serif" font-size="11" font-weight="400" fill="#444444" text-anchor="middle">0</text>
<line x1="528" y1="128" x2="528" y2="598" stroke="#e3e3e3" stroke-width="1"/>
<line x1="528" y1="598" x2="528" y2="603" stroke="#444444" stroke-width="1"/>
<text x="528" y="618" font-family="Arial, Helvetica, sans-serif" font-size="11" font-weight="400" fill="#444444" text-anchor="middle">2</text>
<line x1="677" y1="128" x2="677" y2="598" stroke="#e3e3e3" stroke-width="1"/>
<line x1="677" y1="598" x2="677" y2="603" stroke="#444444" stroke-width="1"/>
<text x="677" y="618" font-family="Arial, Helvetica, sans-serif" font-size="11" font-weight="400" fill="#444444" text-anchor="middle">4</text>
<line x1="825" y1="128" x2="825" y2="598" stroke="#e3e3e3" stroke-width="1"/>
<line x1="825" y1="598" x2="825" y2="603" stroke="#444444" stroke-width="1"/>
<text x="825" y="618" font-family="Arial, Helvetica, sans-serif" font-size="11" font-weight="400" fill="#444444" text-anchor="middle">6</text>
<line x1="900" y1="128" x2="900" y2="598" stroke="#e3e3e3" stroke-width="1"/>
<line x1="900" y1="598" x2="900" y2="603" stroke="#444444" stroke-width="1"/>
<text x="900" y="618" font-family="Arial, Helvetica, sans-serif" font-size="11" font-weight="400" fill="#444444" text-anchor="middle">7</text>
<text x="640" y="640" font-family="Arial, Helvetica, sans-serif" font-size="12" font-weight="400" fill="#444444" text-anchor="middle">Candidate count</text>
<text x="24" y="152" font-family="Arial, Helvetica, sans-serif" font-size="12" font-weight="400" fill="#222222" text-anchor="start">Immune and inflammatory regulation</text>
<rect x="380" y="138" width="520" height="24" fill="#eeeeee"/>
<rect x="380" y="138" width="74" height="24" fill="#0072B2"/>
<rect x="454" y="138" width="222" height="24" fill="#D55E00"/>
<text x="912" y="155" font-family="Arial, Helvetica, sans-serif" font-size="12" font-weight="700" fill="#222222" text-anchor="start">n=4</text>
<circle cx="1008" cy="150" r="8" fill="#56B4E9"/>
<text x="1008" y="154" font-family="Arial, Helvetica, sans-serif" font-size="10" font-weight="700" fill="#ffffff" text-anchor="middle">1</text>
<circle cx="1088" cy="150" r="8" fill="#CC79A7"/>
<text x="1088" y="154" font-family="Arial, Helvetica, sans-serif" font-size="10" font-weight="700" fill="#ffffff" text-anchor="middle">0</text>
<circle cx="1166" cy="150" r="8" fill="#999999"/>
<text x="1166" y="154" font-family="Arial, Helvetica, sans-serif" font-size="10" font-weight="700" fill="#ffffff" text-anchor="middle">0</text>
<text x="24" y="198" font-family="Arial, Helvetica, sans-serif" font-size="12" font-weight="400" fill="#222222" text-anchor="start">Tissue-specific preservation</text>
<rect x="380" y="184" width="520" height="24" fill="#eeeeee"/>
<rect x="380" y="184" width="148" height="24" fill="#0072B2"/>
<rect x="528" y="184" width="148" height="24" fill="#D55E00"/>
<text x="912" y="201" font-family="Arial, Helvetica, sans-serif" font-size="12" font-weight="700" fill="#222222" text-anchor="start">n=4</text>
<circle cx="1008" cy="196" r="8" fill="#56B4E9"/>
<text x="1008" y="200" font-family="Arial, Helvetica, sans-serif" font-size="10" font-weight="700" fill="#ffffff" text-anchor="middle">2</text>
<circle cx="1088" cy="196" r="8" fill="#CC79A7"/>
<text x="1088" y="200" font-family="Arial, Helvetica, sans-serif" font-size="10" font-weight="700" fill="#ffffff" text-anchor="middle">0</text>
<circle cx="1166" cy="196" r="8" fill="#999999"/>
<text x="1166" y="200" font-family="Arial, Helvetica, sans-serif" font-size="10" font-weight="700" fill="#ffffff" text-anchor="middle">0</text>
<text x="24" y="244" font-family="Arial, Helvetica, sans-serif" font-size="12" font-weight="400" fill="#222222" text-anchor="start">Ferroptosis, iron handling, and oxidative</text>
<text x="24" y="257" font-family="Arial, Helvetica, sans-serif" font-size="12" font-weight="400" fill="#222222" text-anchor="start">stress</text>
<rect x="380" y="230" width="520" height="24" fill="#eeeeee"/>
<rect x="380" y="230" width="222" height="24" fill="#0072B2"/>
<rect x="602" y="230" width="74" height="24" fill="#D55E00"/>
<text x="912" y="247" font-family="Arial, Helvetica, sans-serif" font-size="12" font-weight="700" fill="#222222" text-anchor="start">n=4</text>
<circle cx="1008" cy="242" r="8" fill="#56B4E9"/>
<text x="1008" y="246" font-family="Arial, Helvetica, sans-serif" font-size="10" font-weight="700" fill="#ffffff" text-anchor="middle">2</text>
<circle cx="1088" cy="242" r="8" fill="#CC79A7"/>
<text x="1088" y="246" font-family="Arial, Helvetica, sans-serif" font-size="10" font-weight="700" fill="#ffffff" text-anchor="middle">1</text>
<circle cx="1166" cy="242" r="8" fill="#999999"/>
<text x="1166" y="246" font-family="Arial, Helvetica, sans-serif" font-size="10" font-weight="700" fill="#ffffff" text-anchor="middle">1</text>
<text x="24" y="290" font-family="Arial, Helvetica, sans-serif" font-size="12" font-weight="400" fill="#222222" text-anchor="start">p53 pathway</text>
<rect x="380" y="276" width="520" height="24" fill="#eeeeee"/>
<rect x="380" y="276" width="222" height="24" fill="#0072B2"/>
<rect x="602" y="276" width="74" height="24" fill="#D55E00"/>
<text x="912" y="293" font-family="Arial, Helvetica, sans-serif" font-size="12" font-weight="700" fill="#222222" text-anchor="start">n=4</text>
<circle cx="1008" cy="288" r="8" fill="#56B4E9"/>
<text x="1008" y="292" font-family="Arial, Helvetica, sans-serif" font-size="10" font-weight="700" fill="#ffffff" text-anchor="middle">3</text>
<circle cx="1088" cy="288" r="8" fill="#CC79A7"/>
<text x="1088" y="292" font-family="Arial, Helvetica, sans-serif" font-size="10" font-weight="700" fill="#ffffff" text-anchor="middle">1</text>
<circle cx="1166" cy="288" r="8" fill="#999999"/>
<text x="1166" y="292" font-family="Arial, Helvetica, sans-serif" font-size="10" font-weight="700" fill="#ffffff" text-anchor="middle">1</text>
<text x="24" y="336" font-family="Arial, Helvetica, sans-serif" font-size="12" font-weight="400" fill="#222222" text-anchor="start">Proteostasis and autophagy</text>
<rect x="380" y="322" width="520" height="24" fill="#eeeeee"/>
<rect x="380" y="322" width="222" height="24" fill="#0072B2"/>
<rect x="602" y="322" width="74" height="24" fill="#D55E00"/>
<text x="912" y="339" font-family="Arial, Helvetica, sans-serif" font-size="12" font-weight="700" fill="#222222" text-anchor="start">n=4</text>
<circle cx="1008" cy="334" r="8" fill="#56B4E9"/>
<text x="1008" y="338" font-family="Arial, Helvetica, sans-serif" font-size="10" font-weight="700" fill="#ffffff" text-anchor="middle">3</text>
<circle cx="1088" cy="334" r="8" fill="#CC79A7"/>
<text x="1088" y="338" font-family="Arial, Helvetica, sans-serif" font-size="10" font-weight="700" fill="#ffffff" text-anchor="middle">0</text>
<circle cx="1166" cy="334" r="8" fill="#999999"/>
<text x="1166" y="338" font-family="Arial, Helvetica, sans-serif" font-size="10" font-weight="700" fill="#ffffff" text-anchor="middle">0</text>
<text x="24" y="382" font-family="Arial, Helvetica, sans-serif" font-size="12" font-weight="400" fill="#222222" text-anchor="start">Mitochondrial biology and metabolism</text>
<rect x="380" y="368" width="520" height="24" fill="#eeeeee"/>
<rect x="380" y="368" width="148" height="24" fill="#0072B2"/>
<rect x="528" y="368" width="74" height="24" fill="#D55E00"/>
<text x="912" y="385" font-family="Arial, Helvetica, sans-serif" font-size="12" font-weight="700" fill="#222222" text-anchor="start">n=3</text>
<circle cx="1008" cy="380" r="8" fill="#56B4E9"/>
<text x="1008" y="384" font-family="Arial, Helvetica, sans-serif" font-size="10" font-weight="700" fill="#ffffff" text-anchor="middle">2</text>
<circle cx="1088" cy="380" r="8" fill="#CC79A7"/>
<text x="1088" y="384" font-family="Arial, Helvetica, sans-serif" font-size="10" font-weight="700" fill="#ffffff" text-anchor="middle">0</text>
<circle cx="1166" cy="380" r="8" fill="#999999"/>
<text x="1166" y="384" font-family="Arial, Helvetica, sans-serif" font-size="10" font-weight="700" fill="#ffffff" text-anchor="middle">0</text>
<text x="24" y="428" font-family="Arial, Helvetica, sans-serif" font-size="12" font-weight="400" fill="#222222" text-anchor="start">Antioxidant response</text>
<rect x="380" y="414" width="520" height="24" fill="#eeeeee"/>
<rect x="380" y="414" width="148" height="24" fill="#0072B2"/>
<rect x="528" y="414" width="74" height="24" fill="#D55E00"/>
<text x="912" y="431" font-family="Arial, Helvetica, sans-serif" font-size="12" font-weight="700" fill="#222222" text-anchor="start">n=3</text>
<circle cx="1008" cy="426" r="8" fill="#56B4E9"/>
<text x="1008" y="430" font-family="Arial, Helvetica, sans-serif" font-size="10" font-weight="700" fill="#ffffff" text-anchor="middle">3</text>
<circle cx="1088" cy="426" r="8" fill="#CC79A7"/>
<text x="1088" y="430" font-family="Arial, Helvetica, sans-serif" font-size="10" font-weight="700" fill="#ffffff" text-anchor="middle">0</text>
<circle cx="1166" cy="426" r="8" fill="#999999"/>
<text x="1166" y="430" font-family="Arial, Helvetica, sans-serif" font-size="10" font-weight="700" fill="#ffffff" text-anchor="middle">0</text>
<text x="24" y="474" font-family="Arial, Helvetica, sans-serif" font-size="12" font-weight="400" fill="#222222" text-anchor="start">DNA repair/genome stability</text>
<rect x="380" y="460" width="520" height="24" fill="#eeeeee"/>
<rect x="380" y="460" width="371" height="24" fill="#0072B2"/>
<text x="912" y="477" font-family="Arial, Helvetica, sans-serif" font-size="12" font-weight="700" fill="#222222" text-anchor="start">n=5</text>
<circle cx="1008" cy="472" r="8" fill="#56B4E9"/>
<text x="1008" y="476" font-family="Arial, Helvetica, sans-serif" font-size="10" font-weight="700" fill="#ffffff" text-anchor="middle">4</text>
<circle cx="1088" cy="472" r="8" fill="#CC79A7"/>
<text x="1088" y="476" font-family="Arial, Helvetica, sans-serif" font-size="10" font-weight="700" fill="#ffffff" text-anchor="middle">1</text>
<circle cx="1166" cy="472" r="8" fill="#999999"/>
<text x="1166" y="476" font-family="Arial, Helvetica, sans-serif" font-size="10" font-weight="700" fill="#ffffff" text-anchor="middle">1</text>
<text x="24" y="520" font-family="Arial, Helvetica, sans-serif" font-size="12" font-weight="400" fill="#222222" text-anchor="start">Chromatin and epigenome-related regulation</text>
<rect x="380" y="506" width="520" height="24" fill="#eeeeee"/>
<rect x="380" y="506" width="222" height="24" fill="#0072B2"/>
<text x="912" y="523" font-family="Arial, Helvetica, sans-serif" font-size="12" font-weight="700" fill="#222222" text-anchor="start">n=3</text>
<circle cx="1008" cy="518" r="8" fill="#56B4E9"/>
<text x="1008" y="522" font-family="Arial, Helvetica, sans-serif" font-size="10" font-weight="700" fill="#ffffff" text-anchor="middle">2</text>
<circle cx="1088" cy="518" r="8" fill="#CC79A7"/>
<text x="1088" y="522" font-family="Arial, Helvetica, sans-serif" font-size="10" font-weight="700" fill="#ffffff" text-anchor="middle">0</text>
<circle cx="1166" cy="518" r="8" fill="#999999"/>
<text x="1166" y="522" font-family="Arial, Helvetica, sans-serif" font-size="10" font-weight="700" fill="#ffffff" text-anchor="middle">1</text>
<text x="24" y="566" font-family="Arial, Helvetica, sans-serif" font-size="12" font-weight="400" fill="#222222" text-anchor="start">Telomere-related biology</text>
<rect x="380" y="552" width="520" height="24" fill="#eeeeee"/>
<rect x="380" y="552" width="520" height="24" fill="#0072B2"/>
<text x="912" y="569" font-family="Arial, Helvetica, sans-serif" font-size="12" font-weight="700" fill="#222222" text-anchor="start">n=7</text>
<circle cx="1008" cy="564" r="8" fill="#56B4E9"/>
<text x="1008" y="568" font-family="Arial, Helvetica, sans-serif" font-size="10" font-weight="700" fill="#ffffff" text-anchor="middle">5</text>
<circle cx="1088" cy="564" r="8" fill="#CC79A7"/>
<text x="1088" y="568" font-family="Arial, Helvetica, sans-serif" font-size="10" font-weight="700" fill="#ffffff" text-anchor="middle">0</text>
<circle cx="1166" cy="564" r="8" fill="#999999"/>
<text x="1166" y="568" font-family="Arial, Helvetica, sans-serif" font-size="10" font-weight="700" fill="#ffffff" text-anchor="middle">0</text>
<text x="24" y="680" font-family="Arial, Helvetica, sans-serif" font-size="11" font-weight="400" fill="#555555" text-anchor="start">Data source: results/evidence/phase8b_mechanism_summary.tsv</text>
<text x="24" y="700" font-family="Arial, Helvetica, sans-serif" font-size="11" font-weight="400" fill="#555555" text-anchor="start">Guardrail: mechanism-level bars summarize reporting readiness only; row-level validation controls biological wording.</text>
</svg>
