<svg xmlns="http://www.w3.org/2000/svg" width="1050" height="432" viewBox="0 0 1050 432" role="img" aria-labelledby="title desc">
<title id="title">Phase 9 artifact and context summary</title>
<desc id="desc">Counts that should harden interpretation rather than strengthen biological claims.</desc>
<rect width="100%" height="100%" fill="#ffffff"/>
<text x="24" y="34" font-family="Arial, Helvetica, sans-serif" font-size="20" font-weight="700" fill="#222222" text-anchor="start">Phase 9 artifact and context summary</text>
<text x="24" y="58" font-family="Arial, Helvetica, sans-serif" font-size="12" font-weight="400" fill="#555555" text-anchor="start">Counts that should harden interpretation rather than strengthen biological claims.</text>
<text x="24" y="84" font-family="Arial, Helvetica, sans-serif" font-size="11" font-weight="400" fill="#666666" text-anchor="start">Source values are written to the matching reports/figures/data TSV.</text>
<line x1="370" y1="336" x2="940" y2="336" stroke="#444444" stroke-width="1"/>
<line x1="370" y1="108" x2="370" y2="336" stroke="#e3e3e3" stroke-width="1"/>
<line x1="370" y1="336" x2="370" y2="341" stroke="#444444" stroke-width="1"/>
<text x="370" y="356" font-family="Arial, Helvetica, sans-serif" font-size="11" font-weight="400" fill="#444444" text-anchor="middle">0</text>
<line x1="581" y1="108" x2="581" y2="336" stroke="#e3e3e3" stroke-width="1"/>
<line x1="581" y1="336" x2="581" y2="341" stroke="#444444" stroke-width="1"/>
<text x="581" y="356" font-family="Arial, Helvetica, sans-serif" font-size="11" font-weight="400" fill="#444444" text-anchor="middle">10</text>
<line x1="792" y1="108" x2="792" y2="336" stroke="#e3e3e3" stroke-width="1"/>
<line x1="792" y1="336" x2="792" y2="341" stroke="#444444" stroke-width="1"/>
<text x="792" y="356" font-family="Arial, Helvetica, sans-serif" font-size="11" font-weight="400" fill="#444444" text-anchor="middle">20</text>
<line x1="940" y1="108" x2="940" y2="336" stroke="#e3e3e3" stroke-width="1"/>
<line x1="940" y1="336" x2="940" y2="341" stroke="#444444" stroke-width="1"/>
<text x="940" y="356" font-family="Arial, Helvetica, sans-serif" font-size="11" font-weight="400" fill="#444444" text-anchor="middle">27</text>
<text x="655" y="378" font-family="Arial, Helvetica, sans-serif" font-size="12" font-weight="400" fill="#444444" text-anchor="middle">Candidate count</text>
<line x1="370" y1="127" x2="362" y2="127" stroke="#444444" stroke-width="1"/>
<text x="24" y="129" font-family="Arial, Helvetica, sans-serif" font-size="12" font-weight="400" fill="#222222" text-anchor="start">High artifact risk</text>
<rect x="370" y="116" width="570" height="22" fill="#eeeeee"/>
<rect x="370" y="116" width="274" height="22" fill="#D55E00"/>
<text x="954" y="132" font-family="Arial, Helvetica, sans-serif" font-size="12" font-weight="700" fill="#222222" text-anchor="start">13</text>
<line x1="370" y1="171" x2="362" y2="171" stroke="#444444" stroke-width="1"/>
<text x="24" y="173" font-family="Arial, Helvetica, sans-serif" font-size="12" font-weight="400" fill="#222222" text-anchor="start">Moderate artifact risk</text>
<rect x="370" y="160" width="570" height="22" fill="#eeeeee"/>
<rect x="370" y="160" width="126" height="22" fill="#E69F00"/>
<text x="954" y="176" font-family="Arial, Helvetica, sans-serif" font-size="12" font-weight="700" fill="#222222" text-anchor="start">6</text>
<line x1="370" y1="215" x2="362" y2="215" stroke="#444444" stroke-width="1"/>
<text x="24" y="217" font-family="Arial, Helvetica, sans-serif" font-size="12" font-weight="400" fill="#222222" text-anchor="start">Repeat-context caveat</text>
<rect x="370" y="204" width="570" height="22" fill="#eeeeee"/>
<rect x="370" y="204" width="63" height="22" fill="#CC79A7"/>
<text x="954" y="220" font-family="Arial, Helvetica, sans-serif" font-size="12" font-weight="700" fill="#222222" text-anchor="start">3</text>
<line x1="370" y1="259" x2="362" y2="259" stroke="#444444" stroke-width="1"/>
<text x="24" y="261" font-family="Arial, Helvetica, sans-serif" font-size="12" font-weight="400" fill="#222222" text-anchor="start">Locus review required</text>
<rect x="370" y="248" width="570" height="22" fill="#eeeeee"/>
<rect x="370" y="248" width="84" height="22" fill="#999999"/>
<text x="954" y="264" font-family="Arial, Helvetica, sans-serif" font-size="12" font-weight="700" fill="#222222" text-anchor="start">4</text>
<line x1="370" y1="303" x2="362" y2="303" stroke="#444444" stroke-width="1"/>
<text x="24" y="305" font-family="Arial, Helvetica, sans-serif" font-size="12" font-weight="400" fill="#222222" text-anchor="start">Retina expression support</text>
<rect x="370" y="292" width="570" height="22" fill="#eeeeee"/>
<rect x="370" y="292" width="570" height="22" fill="#56B4E9"/>
<text x="954" y="308" font-family="Arial, Helvetica, sans-serif" font-size="12" font-weight="700" fill="#222222" text-anchor="start">27</text>
<text x="24" y="398" font-family="Arial, Helvetica, sans-serif" font-size="11" font-weight="400" fill="#555555" text-anchor="start">Data source: results/evidence/phase8b_tier_audit.tsv; results/evidence/phase8b_mechanism_summary.tsv</text>
<text x="24" y="416" font-family="Arial, Helvetica, sans-serif" font-size="11" font-weight="400" fill="#555555" text-anchor="start">Guardrail: Artifact/context counts are caution flags, not positive support for longevity mechanisms.</text>
</svg>
