<svg xmlns="http://www.w3.org/2000/svg" width="1050" height="388" viewBox="0 0 1050 388" role="img" aria-labelledby="title desc">
<title id="title">Phase 9 evidence tier summary</title>
<desc id="desc">Counts from Phase 8b final evidence tiers.</desc>
<rect width="100%" height="100%" fill="#ffffff"/>
<text x="24" y="34" font-family="Arial, Helvetica, sans-serif" font-size="20" font-weight="700" fill="#222222" text-anchor="start">Phase 9 evidence tier summary</text>
<text x="24" y="58" font-family="Arial, Helvetica, sans-serif" font-size="12" font-weight="400" fill="#555555" text-anchor="start">Counts from Phase 8b final evidence tiers.</text>
<text x="24" y="84" font-family="Arial, Helvetica, sans-serif" font-size="11" font-weight="400" fill="#666666" text-anchor="start">Source values are written to the matching reports/figures/data TSV.</text>
<line x1="370" y1="292" x2="940" y2="292" stroke="#444444" stroke-width="1"/>
<line x1="370" y1="108" x2="370" y2="292" stroke="#e3e3e3" stroke-width="1"/>
<line x1="370" y1="292" x2="370" y2="297" stroke="#444444" stroke-width="1"/>
<text x="370" y="312" font-family="Arial, Helvetica, sans-serif" font-size="11" font-weight="400" fill="#444444" text-anchor="middle">0</text>
<line x1="553" y1="108" x2="553" y2="292" stroke="#e3e3e3" stroke-width="1"/>
<line x1="553" y1="292" x2="553" y2="297" stroke="#444444" stroke-width="1"/>
<text x="553" y="312" font-family="Arial, Helvetica, sans-serif" font-size="11" font-weight="400" fill="#444444" text-anchor="middle">10</text>
<line x1="737" y1="108" x2="737" y2="292" stroke="#e3e3e3" stroke-width="1"/>
<line x1="737" y1="292" x2="737" y2="297" stroke="#444444" stroke-width="1"/>
<text x="737" y="312" font-family="Arial, Helvetica, sans-serif" font-size="11" font-weight="400" fill="#444444" text-anchor="middle">20</text>
<line x1="921" y1="108" x2="921" y2="292" stroke="#e3e3e3" stroke-width="1"/>
<line x1="921" y1="292" x2="921" y2="297" stroke="#444444" stroke-width="1"/>
<text x="921" y="312" font-family="Arial, Helvetica, sans-serif" font-size="11" font-weight="400" fill="#444444" text-anchor="middle">30</text>
<line x1="940" y1="108" x2="940" y2="292" stroke="#e3e3e3" stroke-width="1"/>
<line x1="940" y1="292" x2="940" y2="297" stroke="#444444" stroke-width="1"/>
<text x="940" y="312" font-family="Arial, Helvetica, sans-serif" font-size="11" font-weight="400" fill="#444444" text-anchor="middle">31</text>
<text x="655" y="334" font-family="Arial, Helvetica, sans-serif" font-size="12" font-weight="400" fill="#444444" text-anchor="middle">Candidate count</text>
<line x1="370" y1="127" x2="362" y2="127" stroke="#444444" stroke-width="1"/>
<text x="24" y="129" font-family="Arial, Helvetica, sans-serif" font-size="12" font-weight="400" fill="#222222" text-anchor="start">Tier 1</text>
<rect x="370" y="116" width="570" height="22" fill="#eeeeee"/>
<rect x="370" y="116" width="0" height="22" fill="#009E73"/>
<text x="954" y="132" font-family="Arial, Helvetica, sans-serif" font-size="12" font-weight="700" fill="#222222" text-anchor="start">0</text>
<text x="988" y="132" font-family="Arial, Helvetica, sans-serif" font-size="11" font-weight="400" fill="#555555" text-anchor="start">(0.0%)</text>
<line x1="370" y1="171" x2="362" y2="171" stroke="#444444" stroke-width="1"/>
<text x="24" y="173" font-family="Arial, Helvetica, sans-serif" font-size="12" font-weight="400" fill="#222222" text-anchor="start">Tier 2</text>
<rect x="370" y="160" width="570" height="22" fill="#eeeeee"/>
<rect x="370" y="160" width="570" height="22" fill="#0072B2"/>
<text x="954" y="176" font-family="Arial, Helvetica, sans-serif" font-size="12" font-weight="700" fill="#222222" text-anchor="start">31</text>
<text x="988" y="176" font-family="Arial, Helvetica, sans-serif" font-size="11" font-weight="400" fill="#555555" text-anchor="start">(75.6%)</text>
<line x1="370" y1="215" x2="362" y2="215" stroke="#444444" stroke-width="1"/>
<text x="24" y="217" font-family="Arial, Helvetica, sans-serif" font-size="12" font-weight="400" fill="#222222" text-anchor="start">Tier 3</text>
<rect x="370" y="204" width="570" height="22" fill="#eeeeee"/>
<rect x="370" y="204" width="0" height="22" fill="#E69F00"/>
<text x="954" y="220" font-family="Arial, Helvetica, sans-serif" font-size="12" font-weight="700" fill="#222222" text-anchor="start">0</text>
<text x="988" y="220" font-family="Arial, Helvetica, sans-serif" font-size="11" font-weight="400" fill="#555555" text-anchor="start">(0.0%)</text>
<line x1="370" y1="259" x2="362" y2="259" stroke="#444444" stroke-width="1"/>
<text x="24" y="261" font-family="Arial, Helvetica, sans-serif" font-size="12" font-weight="400" fill="#222222" text-anchor="start">Artifact/uncertain</text>
<rect x="370" y="248" width="570" height="22" fill="#eeeeee"/>
<rect x="370" y="248" width="183" height="22" fill="#D55E00"/>
<text x="954" y="264" font-family="Arial, Helvetica, sans-serif" font-size="12" font-weight="700" fill="#222222" text-anchor="start">10</text>
<text x="988" y="264" font-family="Arial, Helvetica, sans-serif" font-size="11" font-weight="400" fill="#555555" text-anchor="start">(24.4%)</text>
<text x="24" y="354" font-family="Arial, Helvetica, sans-serif" font-size="11" font-weight="400" fill="#555555" text-anchor="start">Data source: results/evidence/phase8b_tier_audit.tsv</text>
<text x="24" y="372" font-family="Arial, Helvetica, sans-serif" font-size="11" font-weight="400" fill="#555555" text-anchor="start">Guardrail: Evidence tiers are reporting-readiness classes, not direct mechanism claims.</text>
</svg>
